<?xml version="1.0" encoding="UTF-8"?>
<svg xmlns="http://www.w3.org/2000/svg" xmlns:xlink="http://www.w3.org/1999/xlink" width="400pt" height="16pt" viewBox="0 0 400 16" version="1.1">
<g id="surface1">
<path style=" stroke:none;fill-rule:nonzero;fill:rgb(24.705505%,34.901428%,62.353516%);fill-opacity:1;" d="M 400 16 L 400 0.996094 C 399.199219 5.792969 395.03125 9.453125 390.007812 9.453125 C 384.980469 9.453125 380.808594 5.792969 380.011719 0.996094 C 379.214844 5.792969 375.042969 9.453125 370.015625 9.453125 C 364.992188 9.453125 360.820312 5.792969 360.023438 0.996094 C 359.222656 5.792969 355.054688 9.453125 350.027344 9.453125 C 345.003906 9.453125 340.835938 5.792969 340.035156 0.996094 C 339.234375 5.792969 335.066406 9.453125 330.039062 9.453125 C 325.015625 9.453125 320.84375 5.792969 320.046875 0.996094 C 319.246094 5.792969 315.078125 9.453125 310.050781 9.453125 C 305.027344 9.453125 300.855469 5.792969 300.058594 0.996094 C 299.257812 5.792969 295.089844 9.453125 290.0625 9.453125 C 285.039062 9.453125 280.867188 5.792969 280.070312 0.996094 C 279.269531 5.792969 275.101562 9.453125 270.074219 9.453125 C 265.050781 9.453125 260.878906 5.792969 260.082031 0.996094 C 259.28125 5.792969 255.113281 9.453125 250.085938 9.453125 C 245.0625 9.453125 240.890625 5.792969 240.09375 0.996094 C 239.292969 5.792969 235.121094 9.453125 230.097656 9.453125 C 225.074219 9.453125 220.902344 5.792969 220.105469 0.996094 C 219.304688 5.792969 215.136719 9.453125 210.109375 9.453125 C 205.085938 9.453125 200.914062 5.792969 200.113281 0.996094 C 199.316406 5.792969 195.144531 9.453125 190.121094 9.453125 C 185.097656 9.453125 180.925781 5.792969 180.128906 0.996094 C 179.328125 5.792969 175.15625 9.453125 170.132812 9.453125 C 165.109375 9.453125 160.9375 5.792969 160.140625 0.996094 C 159.339844 5.792969 155.171875 9.453125 150.144531 9.453125 C 145.117188 9.453125 140.949219 5.792969 140.148438 0.996094 C 139.351562 5.792969 135.179688 9.453125 130.15625 9.453125 C 125.132812 9.453125 120.960938 5.792969 120.160156 0.996094 C 119.363281 5.792969 115.191406 9.453125 110.167969 9.453125 C 105.140625 9.453125 100.972656 5.792969 100.171875 0.996094 C 99.375 5.792969 95.203125 9.453125 90.179688 9.453125 C 85.152344 9.453125 80.984375 5.792969 80.183594 0.996094 C 79.386719 5.792969 75.214844 9.453125 70.191406 9.453125 C 64.824219 9.453125 60.429688 5.277344 60.082031 0 C 59.730469 5.277344 55.339844 9.453125 49.972656 9.453125 C 44.945312 9.453125 40.777344 5.792969 39.976562 0.996094 C 39.976562 0.992188 39.976562 0.992188 39.976562 0.988281 C 39.976562 0.992188 39.976562 0.992188 39.976562 0.996094 C 39.179688 5.792969 35.007812 9.453125 29.984375 9.453125 C 24.957031 9.453125 20.785156 5.792969 19.988281 0.996094 C 19.191406 5.792969 15.019531 9.453125 9.992188 9.453125 C 4.96875 9.453125 0.800781 5.792969 0 0.996094 L 0 16 Z "/>
</g>
</svg>
