<?xml version="1.0" encoding="utf-8"?>
<!-- Generator: Adobe Illustrator 18.1.1, SVG Export Plug-In . SVG Version: 6.00 Build 0)  -->
<svg version="1.1" id="Layer_1" xmlns="http://www.w3.org/2000/svg" xmlns:xlink="http://www.w3.org/1999/xlink" x="0px" y="0px"
	 viewBox="0 0 140 42" enable-background="new 0 0 140 42" xml:space="preserve">
<path fill="#414F98" d="M36.2,36.5c-2.9,0.3-3.7-3.1-3-5.3l6.7,0.3c0,0,4.5-9.9-2.4-12c-5.6-1.7-9.5,8.3-8.7,13.7
	c0.8,5.4,3.4,8.6,8.4,7.8c5-0.8,4.9-5.3,4.9-5.3l-2.4-1.9C39.6,33.7,39.1,36.2,36.2,36.5z M36,23.7c2-0.1,1.2,4.6,1.2,4.6l-3.4-0.4
	C33.7,27.9,34,23.8,36,23.7z M21.6,24.7l-0.3-3.4l-3.8,0.1c0,0,0.9,16.1-0.5,19.7c0,0,3.8-0.6,5.5,0.2c0,0-0.9-10.6,0.1-13.1
	c1-2.5,4.7-2.6,4.7-2.6l-0.9-5.2C26.2,20.3,22.5,21.6,21.6,24.7z M62.6,21.3c0,0,0.5-11.6-0.1-14.3L58,7.5l1.5,34l3.3-0.6
	c0,0-2.3-9.5,1-14.4c2.7-3.9,5.7-1.2,5.7,2.5c0,3.6-0.9,11.4-0.9,11.4s0.6-0.1,2.5-0.1c1.9,0.1,2.8-0.5,2.8-0.5s0.5-12-1.4-15.9
	C70.8,19.9,66,18.7,62.6,21.3z M11.6,2.8C4.1,0.8,3.8,22.6,3.8,22.6l-3.7,0.2L0,27.5l4,0.4L3.6,41l5-0.1l0.2-13.1l5.3-1
	c0,0,1.2-3.5,0.2-5.7c0,0-2,0.9-5.3,1c0,0-0.2-10.2,1.3-11.6c0.9-0.8,1.9,0.6,1.9,3.1l3.8-0.6C16,12.9,19,4.9,11.6,2.8z M53.8,29
	l2.6-1.9c0,0-0.7-5.3-4.8-5.3c-4.2,0-8.3,4.2-5.1,10c0.5,0.9,2,1.8,2.8,3.1c0.8,1.3-0.6,3.8-2.8,1.5l-1.4,4.1c0,0,5.2,3.3,8.6-0.6
	c3.4-3.8-4-7.6-3.3-10.9C51.1,25.8,53.6,28.1,53.8,29z M139.5,38.9l-0.8,2.3l-0.8-2.3h-0.5v2.7h0.3V40c0-0.1,0-0.2,0-0.3
	c0-0.1,0-0.2,0-0.3v-0.1l0.8,2.2h0.4l0.8-2.2c0,0.1,0,0.3,0,0.4c0,0.1,0,0.2,0,0.3v1.6h0.3v-2.7H139.5z M135,39.2h0.9v2.3h0.4v-2.3
	h0.9v-0.3H135V39.2z M102.1,4.7c1.1,0.3,3.4-0.6,2.5-2.8c-0.9-2.1-3.1-0.7-3.1-0.7C100.2,2.4,101,4.4,102.1,4.7z M104.1,8.7
	l-3.3-0.2l0.4,33.2l3.7-0.4C104.9,41.4,103.8,11.6,104.1,8.7z M96.1,1.9c0,0-1.3-0.3-2.7-0.6l-0.8-0.2l-6.1,10.8l0.8-10.9
	c0,0-1.2,0-2.1-0.3c-1-0.3-1.4-0.3-2.5-0.3l-0.4,40.8l4.8-0.2l-1.5-23.9l2.3-3.2l6.2,27.5l3.8-0.3l-8-30L96.1,1.9z M126.5,5.3
	c3.8-1.6,5.9,3.2,5.9,3.2l2.2-2.8c-1.7-2.2-3.7-4.2-7-4.1c-3,0.1-6.9,1.6-5.7,8.7c1.2,7.4,5.6,9,7.4,16.2c2.3,9.5,1.5,11.9-1.1,12
	c-2.6,0.1-3.2-2-3.2-2l-2.2,2.6c0,0,2,2.7,3.4,2.9c1.4,0.2,6.9-0.4,8.1-7.4c1.2-7-2.4-12.2-5.8-18.4C126.6,12.7,122.8,6.8,126.5,5.3
	z M118.2,11.7c0.3-4,0.5-11.2,0.5-11.2l-4.1,0.7c0,0.6-0.1,6.3-0.1,7.8c0,1.5-0.2,8.2-0.2,8.2s-5.8,1.4-6.9,11.7
	c-1.1,10.3,7.4,10.2,7.4,10.2l-0.2,2.5c0,0,3.8-0.4,4.8-0.2C119.5,41.2,117.9,15.7,118.2,11.7z M115.2,35.8c0,0-5.3-0.8-5.1-6.4
	c0.2-5.6,2.2-6.5,4.5-7.9l0.6,13.3L115.2,35.8z"/>
</svg>
