<?xml version="1.0" encoding="utf-8"?>
<!-- Generator: Adobe Illustrator 18.1.1, SVG Export Plug-In . SVG Version: 6.00 Build 0)  -->
<svg version="1.1" xmlns="http://www.w3.org/2000/svg" xmlns:xlink="http://www.w3.org/1999/xlink" x="0px" y="0px"
	 viewBox="0 0 36 36" enable-background="new 0 0 36 36" xml:space="preserve">
<g id="scroll_x5F_arrow">
	<circle fill="#ED4E50" cx="18" cy="18" r="18"/>
	<polygon fill="#FFFFFF" points="6.5,14.6 17.3,27.3 31.5,14 26.2,11.7 17.8,23.5 10.1,10.7 	"/>
</g>
<g id="menu_x5F_open">
	<circle fill="#EC4E50" cx="18" cy="18" r="18"/>
	<polygon fill="#FFFFFF" points="9.2,20.1 8.5,17.2 28.5,16.1 26.9,20.1 	"/>
	<polygon fill="#FFFFFF" points="9.2,12.8 8.5,9.9 28.5,8.8 26.9,12.8 	"/>
	<polygon fill="#FFFFFF" points="9.2,27 8.5,24.1 28.5,23 26.9,27 	"/>
</g>
<g id="menu_x5F_close">
	<circle fill="#EC4E50" cx="18" cy="18" r="18"/>
	<polygon fill="#FFFFFF" points="28.4,24.8 21.4,18.5 27,12.9 25.1,8.3 18.3,15.8 10.9,9.2 9.2,12.2 15.7,18.7 9.5,25.7 12.5,27.4 
		18.5,21.5 23.7,26.7 	"/>
</g>
</svg>
